<svg width="20" height="20" viewBox="0 0 20 20" fill="none" xmlns="http://www.w3.org/2000/svg">
<path d="M16.4 13.6C16.4 13.904 16.232 14.168 15.976 14.304L9.656 17.856C9.528 17.952 9.368 18 9.2 18C9.032 18 8.872 17.952 8.744 17.856L2.424 14.304C2.168 14.168 2 13.904 2 13.6V6.4C2 6.096 2.168 5.832 2.424 5.696L8.744 2.144C8.872 2.048 9.032 2 9.2 2C9.368 2 9.528 2.048 9.656 2.144L15.976 5.696C16.232 5.832 16.4 6.096 16.4 6.4V13.6ZM9.2 3.72L3.6 6.872V13.128L9.2 16.28L14.8 13.128V6.872L9.2 3.72Z" fill="#393F49"/>
<path fill-rule="evenodd" clip-rule="evenodd" d="M16.2026 7.00499L9.21852 10.497L2.22764 7.31933L2.97248 5.68067L9.1816 8.503L15.3976 5.39502L16.2026 7.00499Z" fill="#393F49"/>
<path fill-rule="evenodd" clip-rule="evenodd" d="M10.1 9.5V17.3H8.3V9.5H10.1Z" fill="#393F49"/>
</svg>
