<svg width="40" height="40" viewBox="0 0 40 40" fill="none" xmlns="http://www.w3.org/2000/svg">
<path d="M24.18 27.6L22.17 24.12C23.15 23.4 23.83 22.28 23.97 21H28C27.83 23.76 26.35 26.16 24.18 27.6ZM21 15.03V11C25.3 11.26 28.74 14.7 29 19H24.97C24.74 16.91 23.09 15.26 21 15.03ZM15 20.5C15 21.14 15.13 21.75 15.38 22.3L11.9 24.31C11.32 23.16 11 21.87 11 20.5C11 15.97 14.54 12.27 19 12V16.03C16.75 16.28 15 18.18 15 20.5ZM19.5 29C16.53 29 13.92 27.5 12.4 25.18L15.88 23.17C16.7 24.28 18 25 19.5 25C20.14 25 20.75 24.87 21.3 24.62L23.31 28.1C22.16 28.68 20.87 29 19.5 29Z" fill="white"/>
</svg>
