<svg width="20" height="20" viewBox="0 0 20 20" fill="none" xmlns="http://www.w3.org/2000/svg">
<path d="M6.5 13.5L8.74 8.74L13.5 6.5L11.26 11.26L6.5 13.5ZM10 9.37C9.83291 9.37 9.67267 9.43637 9.55452 9.55452C9.43637 9.67267 9.37 9.83291 9.37 10C9.37 10.1671 9.43637 10.3273 9.55452 10.4455C9.67267 10.5636 9.83291 10.63 10 10.63C10.1671 10.63 10.3273 10.5636 10.4455 10.4455C10.5636 10.3273 10.63 10.1671 10.63 10C10.63 9.83291 10.5636 9.67267 10.4455 9.55452C10.3273 9.43637 10.1671 9.37 10 9.37ZM10 3C10.9193 3 11.8295 3.18106 12.6788 3.53284C13.5281 3.88463 14.2997 4.40024 14.9497 5.05025C15.5998 5.70026 16.1154 6.47194 16.4672 7.32122C16.8189 8.17049 17 9.08075 17 10C17 11.8565 16.2625 13.637 14.9497 14.9497C13.637 16.2625 11.8565 17 10 17C9.08075 17 8.17049 16.8189 7.32122 16.4672C6.47194 16.1154 5.70026 15.5998 5.05025 14.9497C3.7375 13.637 3 11.8565 3 10C3 8.14348 3.7375 6.36301 5.05025 5.05025C6.36301 3.7375 8.14348 3 10 3ZM10 4.4C8.51479 4.4 7.09041 4.99 6.0402 6.0402C4.99 7.09041 4.4 8.51479 4.4 10C4.4 11.4852 4.99 12.9096 6.0402 13.9598C7.09041 15.01 8.51479 15.6 10 15.6C11.4852 15.6 12.9096 15.01 13.9598 13.9598C15.01 12.9096 15.6 11.4852 15.6 10C15.6 8.51479 15.01 7.09041 13.9598 6.0402C12.9096 4.99 11.4852 4.4 10 4.4Z" fill="#393F49"/>
</svg>
