<svg width="40" height="40" viewBox="0 0 40 40" fill="none" xmlns="http://www.w3.org/2000/svg">
<path fill-rule="evenodd" clip-rule="evenodd" d="M20.4628 12.5881H19.5372C18.5148 12.5881 17.6859 13.4149 17.6859 14.4348V18.2923C17.6859 19.3122 18.5148 20.139 19.5372 20.139H20.4628C21.4852 20.139 22.314 19.3122 22.314 18.2923V14.4348C22.314 13.4149 21.4852 12.5881 20.4628 12.5881ZM19.5372 9.81812C16.9812 9.81812 14.9091 11.8851 14.9091 14.4348V18.2923C14.9091 20.8421 16.9812 22.909 19.5372 22.909H20.4628C23.0188 22.909 25.0909 20.8421 25.0909 18.2923V14.4348C25.0909 11.8851 23.0188 9.81812 20.4628 9.81812H19.5372Z" fill="#393F49"/>
<path d="M12 19.19C12 17.629 13.2641 16.3635 14.8235 16.3635H25.1765C26.7359 16.3635 28 17.629 28 19.19V27.3553C28 28.9163 26.7359 30.1817 25.1765 30.1817H14.8235C13.2641 30.1817 12 28.9163 12 27.3553V19.19Z" fill="#393F49"/>
<path d="M21.4546 21.925C21.4546 22.5866 20.8033 23.1229 20 23.1229C19.1967 23.1229 18.5455 22.5866 18.5455 21.925C18.5455 21.2635 19.1967 20.7272 20 20.7272C20.8033 20.7272 21.4546 21.2635 21.4546 21.925Z" fill="white"/>
<path d="M19.6364 22.8234H20.3637L20.7273 25.8181H19.2727L19.6364 22.8234Z" fill="white"/>
</svg>
