<svg width="20" height="20" viewBox="0 0 20 20" fill="none" xmlns="http://www.w3.org/2000/svg">
<path d="M10 14.8C11.273 14.8 12.4939 14.2943 13.3941 13.3941C14.2943 12.4939 14.8 11.273 14.8 10C14.8 8.72696 14.2943 7.50606 13.3941 6.60589C12.4939 5.70571 11.273 5.2 10 5.2C8.72696 5.2 7.50606 5.70571 6.60589 6.60589C5.70571 7.50606 5.2 8.72696 5.2 10C5.2 11.273 5.70571 12.4939 6.60589 13.3941C7.50606 14.2943 8.72696 14.8 10 14.8ZM10 4C10.7879 4 11.5681 4.15519 12.2961 4.45672C13.0241 4.75825 13.6855 5.20021 14.2426 5.75736C14.7998 6.31451 15.2417 6.97595 15.5433 7.7039C15.8448 8.43185 16 9.21207 16 10C16 11.5913 15.3679 13.1174 14.2426 14.2426C13.1174 15.3679 11.5913 16 10 16C6.682 16 4 13.3 4 10C4 8.4087 4.63214 6.88258 5.75736 5.75736C6.88258 4.63214 8.4087 4 10 4ZM10.3 7V10.15L13 11.752L12.55 12.49L9.4 10.6V7H10.3Z" fill="#6E9ED9"/>
</svg>
