<svg width="40" height="40" viewBox="0 0 40 40" fill="none" xmlns="http://www.w3.org/2000/svg">
<path d="M20 27.2C17.5 27.2 15.29 25.92 14 24C14.03 22 18 20.9 20 20.9C22 20.9 25.97 22 26 24C24.71 25.92 22.5 27.2 20 27.2ZM20 13C20.7956 13 21.5587 13.3161 22.1213 13.8787C22.6839 14.4413 23 15.2044 23 16C23 16.7956 22.6839 17.5587 22.1213 18.1213C21.5587 18.6839 20.7956 19 20 19C19.2044 19 18.4413 18.6839 17.8787 18.1213C17.3161 17.5587 17 16.7956 17 16C17 15.2044 17.3161 14.4413 17.8787 13.8787C18.4413 13.3161 19.2044 13 20 13ZM20 10C18.6868 10 17.3864 10.2587 16.1732 10.7612C14.9599 11.2638 13.8575 12.0003 12.9289 12.9289C11.0536 14.8043 10 17.3478 10 20C10 22.6522 11.0536 25.1957 12.9289 27.0711C13.8575 27.9997 14.9599 28.7362 16.1732 29.2388C17.3864 29.7413 18.6868 30 20 30C22.6522 30 25.1957 28.9464 27.0711 27.0711C28.9464 25.1957 30 22.6522 30 20C30 14.47 25.5 10 20 10Z" fill="#393F49"/>
</svg>
