<svg width="83" height="83" viewBox="0 0 83 83" fill="none" xmlns="http://www.w3.org/2000/svg">
<g clip-path="url(#clip0)">
<path d="M0 12C0 5.37259 5.37258 0 12 0H71C77.6274 0 83 5.37258 83 12V71C83 77.6274 77.6274 83 71 83H12C5.37259 83 0 77.6274 0 71V12Z" fill="#C2DF70"/>
<g clip-path="url(#clip1)">
<path d="M40.5833 47.3515C43.4828 47.3515 45.8333 45.2702 45.8333 42.7028C45.8333 40.1355 43.4828 38.0542 40.5833 38.0542C37.6838 38.0542 35.3333 40.1355 35.3333 42.7028C35.3333 45.2702 37.6838 47.3515 40.5833 47.3515Z" fill="white"/>
<path d="M40.5833 36.8919C43.4828 36.8919 45.8333 30.6481 45.8333 22.9459C45.8333 15.2438 43.4828 9 40.5833 9C37.6838 9 35.3333 15.2438 35.3333 22.9459C35.3333 30.6481 37.6838 36.8919 40.5833 36.8919Z" fill="white"/>
<path d="M26.0671 57.0561C32.6394 53.2579 36.8487 48.2395 35.4688 45.8473C34.0889 43.4551 27.6424 44.5949 21.0701 48.3932C14.4978 52.1914 10.2885 57.2098 11.6684 59.602C13.0483 61.9942 19.4948 60.8544 26.0671 57.0561Z" fill="white"/>
<path d="M69.9879 59.6971C71.3678 57.3049 67.1585 52.2866 60.5862 48.4883C54.0139 44.6901 47.5674 43.5502 46.1875 45.9424C44.8076 48.3347 49.0169 53.353 55.5892 57.1513C62.1615 60.9495 68.6081 62.0894 69.9879 59.6971Z" fill="white"/>
<path d="M48.1665 105.308C48.1665 106.546 47.1229 107.784 45.8183 107.784H35.3817C34.0771 107.784 32.7725 106.793 33.0335 105.308L37.7299 53.3138C37.7299 52.0758 39.0345 50.8379 40.6 50.8379C42.1655 50.8379 43.2092 51.8283 43.4701 53.3138L48.1665 105.308Z" fill="white"/>
</g>
</g>
<defs>
<clipPath id="clip0">
<path d="M0 12C0 5.37259 5.37258 0 12 0H71C77.6274 0 83 5.37258 83 12V71C83 77.6274 77.6274 83 71 83H12C5.37259 83 0 77.6274 0 71V12Z" fill="white"/>
</clipPath>
<clipPath id="clip1">
<rect width="77" height="129" fill="white" transform="translate(12 9)"/>
</clipPath>
</defs>
</svg>
