<svg width="125" height="21" viewBox="0 0 125 21" fill="none" xmlns="http://www.w3.org/2000/svg">
<path d="M14.9523 17.4644C14.9523 17.7453 14.8617 18.0018 14.6804 18.2338C14.5121 18.4537 14.195 18.5636 13.7289 18.5636H5.90324C5.81262 18.5636 5.76083 18.5819 5.74789 18.6185C5.73494 18.6552 5.72847 18.6979 5.72847 18.7468V19.0399C5.72847 19.0887 5.73494 19.1315 5.74789 19.1681C5.76083 19.2047 5.81262 19.2231 5.90324 19.2231H14.7193C15.2112 19.2231 15.4507 19.5162 15.4377 20.1024C15.4377 20.7008 15.1982 21 14.7193 21H4.64103C4.17499 21 3.85134 20.884 3.6701 20.6519C3.50181 20.4321 3.41766 20.1818 3.41766 19.9009V17.8858C3.41766 17.6049 3.50181 17.3545 3.6701 17.1347C3.85134 16.9027 4.17499 16.7866 4.64103 16.7866H12.4667C12.5573 16.7866 12.6091 16.7683 12.622 16.7317C12.635 16.695 12.6415 16.6523 12.6415 16.6034V16.3103C12.6415 16.2615 12.635 16.2188 12.622 16.1821C12.6091 16.1455 12.5573 16.1272 12.4667 16.1272H4.13615C3.65716 16.1272 3.41119 15.8341 3.39824 15.2478C3.39824 14.6494 3.64421 14.3502 4.13615 14.3502H8.01986V13.9289C8.01986 13.88 8.01338 13.8373 8.00044 13.8006C7.98749 13.764 7.93571 13.7457 7.84509 13.7457H0.737904C0.258914 13.7457 0.0129457 13.4404 0 12.8297C0 12.2069 0.245968 11.8955 0.737904 11.8955H9.1073C9.57334 11.8955 9.89051 12.0115 10.0588 12.2435C10.24 12.4634 10.3307 12.7137 10.3307 12.9946V14.3502H13.7289C14.195 14.3502 14.5121 14.4662 14.6804 14.6983C14.8617 14.9181 14.9523 15.1685 14.9523 15.4494V17.4644ZM13.0493 7.81034C13.0493 8.84842 12.6026 9.74605 11.7094 10.5032C10.8161 11.2482 9.72869 11.6207 8.44706 11.6207C7.15249 11.6207 6.05211 11.2482 5.14591 10.5032C4.25266 9.75826 3.80603 8.86063 3.80603 7.81034C3.80603 6.76006 4.25266 5.86243 5.14591 5.11746C6.05211 4.37249 7.15249 4 8.44706 4C9.72869 4 10.8161 4.37249 11.7094 5.11746C12.6026 5.86243 13.0493 6.76006 13.0493 7.81034ZM10.7385 7.81034C10.7385 7.26078 10.5119 6.7967 10.0588 6.4181C9.61865 6.03951 9.0814 5.85022 8.44706 5.85022C7.81273 5.85022 7.26901 6.03951 6.81591 6.4181C6.37575 6.7967 6.15568 7.26078 6.15568 7.81034C6.15568 8.35991 6.37575 8.82399 6.81591 9.20259C7.26901 9.58118 7.81273 9.77047 8.44706 9.77047C9.0814 9.77047 9.61865 9.58118 10.0588 9.20259C10.5119 8.82399 10.7385 8.35991 10.7385 7.81034Z" fill="white"/>
<path d="M27.1946 12.5366C27.4017 13.0984 27.1428 13.4953 26.4179 13.7274C25.6929 13.9594 25.2269 13.7945 25.0197 13.2328L22.5147 6.07004L18.7864 16.6401C18.5792 17.2019 18.1132 17.3667 17.3882 17.1347C16.6633 16.9027 16.4044 16.5057 16.6115 15.944L20.4175 5.13578C20.6247 4.57399 21.0907 4.41523 21.8157 4.65948C22.1393 4.7694 22.3723 4.90984 22.5147 5.08082C22.6571 4.90984 22.8902 4.7694 23.2138 4.65948C23.9388 4.41523 24.4048 4.57399 24.6119 5.13578L27.1946 12.5366ZM24.4177 20.1756C23.9517 20.1756 23.6281 20.0596 23.4468 19.8276C23.2785 19.6078 23.1944 19.3574 23.1944 19.0765V14.7349C23.1944 14.1487 23.5763 13.8556 24.3401 13.8556C25.1168 13.8556 25.5052 14.1487 25.5052 14.7349V18.1422C25.5052 18.1911 25.5117 18.2338 25.5246 18.2705C25.5375 18.3071 25.5893 18.3254 25.68 18.3254H34.4183C34.8973 18.3254 35.1368 18.6369 35.1368 19.2597C35.1497 19.8703 34.9102 20.1756 34.4183 20.1756H24.4177ZM31.1754 14.5517C31.1754 15.1379 30.787 15.431 30.0103 15.431C29.2465 15.431 28.8646 15.1379 28.8646 14.5517V5.0625C28.8646 4.47629 29.2465 4.18319 30.0103 4.18319C30.787 4.18319 31.1754 4.47629 31.1754 5.0625V14.5517ZM34.8067 9.25754C34.8067 9.64835 34.6578 9.9842 34.36 10.2651C34.0752 10.5338 33.7257 10.6681 33.3114 10.6681C32.8972 10.6681 32.5412 10.5338 32.2434 10.2651C31.9586 9.9842 31.8162 9.64835 31.8162 9.25754C31.8162 8.86674 31.9586 8.537 32.2434 8.26832C32.5412 7.98743 32.8972 7.84698 33.3114 7.84698C33.7257 7.84698 34.0752 7.98743 34.36 8.26832C34.6578 8.537 34.8067 8.86674 34.8067 9.25754Z" fill="white"/>
<path d="M48.3376 13.2511H46.8424C46.6223 13.2511 46.4475 13.1717 46.3181 13.0129C46.2015 12.842 46.1433 12.616 46.1433 12.3351C46.1433 11.7123 46.4152 11.4009 46.9589 11.4009H49.2308C49.7098 11.4009 50.0464 11.2726 50.2406 11.0162C50.4348 10.7597 50.5319 10.4788 50.5319 10.1735V7.81034C50.5319 7.50503 50.4348 7.22414 50.2406 6.96767C50.0464 6.71121 49.7098 6.58297 49.2308 6.58297H45.1335V18.5269C45.1335 19.1131 44.7516 19.4062 43.9878 19.4062C43.224 19.4062 42.8421 19.1131 42.8421 18.5269V5.8319C42.8421 5.39224 42.9587 5.09914 43.1917 4.95259C43.4376 4.80603 43.7289 4.73276 44.0655 4.73276H49.7163C50.0529 4.73276 50.4024 4.79993 50.7649 4.93427C51.1274 5.06861 51.4769 5.23958 51.8135 5.4472H51.7941C52.1307 5.67924 52.3896 5.98455 52.5708 6.36315C52.7521 6.72953 52.8427 7.15697 52.8427 7.64547V10.32C52.8427 11.3093 52.4932 12.0481 51.7941 12.5366C51.6517 12.6343 51.4963 12.7259 51.328 12.8114C51.1727 12.8969 51.0109 12.9824 50.8426 13.0679L53.9495 17.9041C53.9884 17.9652 54.0272 18.0445 54.0661 18.1422C54.1049 18.2399 54.1243 18.3193 54.1243 18.3804C54.1243 18.6735 53.9042 18.9544 53.4641 19.2231V19.2047C53.1663 19.3757 52.9139 19.4612 52.7068 19.4612C52.409 19.4612 52.1695 19.3208 51.9883 19.0399L52.0077 19.0582L48.3376 13.2511Z" fill="white"/>
<path d="M57.0726 19.2963C56.5936 19.2963 56.27 19.1803 56.1017 18.9483C55.9334 18.7162 55.8492 18.4598 55.8492 18.1789V5.8319C55.8492 5.55101 55.9334 5.30065 56.1017 5.08082C56.27 4.84878 56.5936 4.73276 57.0726 4.73276H63.8302C64.3092 4.73276 64.5617 5.03808 64.5876 5.64871C64.6135 6.27155 64.361 6.58297 63.8302 6.58297H58.1406V17.4461H64.1798C64.6588 17.4461 64.9047 17.7453 64.9177 18.3438C64.9436 18.9788 64.6976 19.2963 64.1798 19.2963H57.0726ZM63.1118 11.7123C63.1118 12.1397 62.9499 12.5 62.6263 12.7931C62.3156 13.0862 61.9337 13.2328 61.4806 13.2328C61.0405 13.2328 60.665 13.0862 60.3543 12.7931C60.0436 12.5 59.8883 12.1397 59.8883 11.7123C59.8883 11.2848 60.0436 10.9246 60.3543 10.6315C60.665 10.3384 61.0405 10.1918 61.4806 10.1918C61.9337 10.1918 62.3156 10.3384 62.6263 10.6315C62.9499 10.9246 63.1118 11.2848 63.1118 11.7123Z" fill="white"/>
<path d="M67.426 8.06681C67.1153 8.06681 66.9535 7.8653 66.9406 7.46228C66.9276 7.04706 67.0894 6.83944 67.426 6.83944C67.6331 6.83944 67.8791 6.81501 68.1639 6.76616C68.4487 6.71731 68.7659 6.65014 69.1154 6.56466C69.4391 6.45474 69.7239 6.27155 69.9698 6.01509C70.2158 5.74641 70.3906 5.43499 70.4941 5.08082C70.5718 4.88542 70.7013 4.72665 70.8825 4.60453C71.0638 4.4824 71.3033 4.42744 71.601 4.43966C72.2095 4.46408 72.5137 4.76329 72.5137 5.33728V18.7101C72.5137 19.2841 72.1318 19.5711 71.368 19.5711C70.6042 19.5711 70.2223 19.2841 70.2223 18.7101V8.06681H67.426Z" fill="white"/>
<path d="M82.8324 4.73276C83.156 4.73276 83.499 4.79993 83.8615 4.93427C84.224 5.06861 84.5735 5.23958 84.9101 5.4472H84.8907C85.2273 5.67924 85.4862 5.98455 85.6675 6.36315C85.8487 6.72953 85.9393 7.15697 85.9393 7.64547V16.347C85.9393 16.8599 85.8487 17.2996 85.6675 17.6659C85.4862 18.0201 85.2273 18.3193 84.8907 18.5636C84.5541 18.7956 84.2111 18.9788 83.8615 19.1131C83.512 19.2353 83.1689 19.2963 82.8324 19.2963H80.7934C80.4568 19.2963 80.1073 19.2353 79.7448 19.1131C79.3953 18.9788 79.0522 18.7956 78.7156 18.5636C78.379 18.3193 78.1136 18.0201 77.9195 17.6659C77.7382 17.2996 77.6476 16.8599 77.6476 16.347V7.64547C77.6476 7.15697 77.7382 6.72953 77.9195 6.36315C78.1136 5.98455 78.379 5.67924 78.7156 5.4472H78.6962C79.0328 5.23958 79.3823 5.06861 79.7448 4.93427C80.1073 4.79993 80.4568 4.73276 80.7934 4.73276H82.8324ZM82.3275 17.4461C82.8065 17.4461 83.143 17.3179 83.3372 17.0614C83.5444 16.805 83.6479 16.518 83.6479 16.2004V7.81034C83.6479 7.50503 83.5444 7.22414 83.3372 6.96767C83.143 6.71121 82.8065 6.58297 82.3275 6.58297H81.2595C80.7805 6.58297 80.4374 6.71121 80.2303 6.96767C80.0361 7.22414 79.939 7.50503 79.939 7.81034V16.2004C79.939 16.518 80.0361 16.805 80.2303 17.0614C80.4374 17.3179 80.7805 17.4461 81.2595 17.4461H82.3275Z" fill="white"/>
<path d="M93.753 4.73276C94.0767 4.73276 94.4197 4.79993 94.7822 4.93427C95.1447 5.06861 95.4942 5.23958 95.8308 5.4472H95.8114C96.148 5.67924 96.4069 5.98455 96.5881 6.36315C96.7693 6.72953 96.86 7.15697 96.86 7.64547V16.347C96.86 16.8599 96.7693 17.2996 96.5881 17.6659C96.4069 18.0201 96.148 18.3193 95.8114 18.5636C95.4748 18.7956 95.1317 18.9788 94.7822 19.1131C94.4326 19.2353 94.0896 19.2963 93.753 19.2963H91.7141C91.3775 19.2963 91.0279 19.2353 90.6655 19.1131C90.3159 18.9788 89.9729 18.7956 89.6363 18.5636C89.2997 18.3193 89.0343 18.0201 88.8401 17.6659C88.6589 17.2996 88.5683 16.8599 88.5683 16.347V7.64547C88.5683 7.15697 88.6589 6.72953 88.8401 6.36315C89.0343 5.98455 89.2997 5.67924 89.6363 5.4472H89.6169C89.9534 5.23958 90.303 5.06861 90.6655 4.93427C91.0279 4.79993 91.3775 4.73276 91.7141 4.73276H93.753ZM93.2481 17.4461C93.7271 17.4461 94.0637 17.3179 94.2579 17.0614C94.465 16.805 94.5686 16.518 94.5686 16.2004V7.81034C94.5686 7.50503 94.465 7.22414 94.2579 6.96767C94.0637 6.71121 93.7271 6.58297 93.2481 6.58297H92.1801C91.7011 6.58297 91.3581 6.71121 91.1509 6.96767C90.9567 7.22414 90.8596 7.50503 90.8596 7.81034V16.2004C90.8596 16.518 90.9567 16.805 91.1509 17.0614C91.3581 17.3179 91.7011 17.4461 92.1801 17.4461H93.2481Z" fill="white"/>
<path d="M107.625 9.25754C107.625 10.5887 107.25 11.7367 106.499 12.7015C106.382 12.8603 106.253 13.0007 106.111 13.1228H106.208C106.984 13.1228 107.373 13.4159 107.373 14.0022V18.3621C107.373 18.4109 107.379 18.4537 107.392 18.4903C107.405 18.5269 107.457 18.5453 107.548 18.5453H114.111C114.202 18.5453 114.253 18.5269 114.266 18.4903C114.279 18.4537 114.286 18.4109 114.286 18.3621V16.9149H108.402C107.923 16.9149 107.677 16.6096 107.664 15.9989C107.664 15.3761 107.91 15.0647 108.402 15.0647H114.286V14.0022C114.286 13.4159 114.668 13.1228 115.432 13.1228C116.208 13.1228 116.597 13.4159 116.597 14.0022V19.2963C116.584 19.5772 116.493 19.8276 116.325 20.0474C116.156 20.2795 115.839 20.3955 115.373 20.3955H106.285C105.819 20.3955 105.496 20.2795 105.314 20.0474C105.146 19.8276 105.062 19.5772 105.062 19.2963V14.0022C105.062 13.9411 105.068 13.88 105.081 13.819C104.577 14.0266 104.007 14.1304 103.373 14.1304C102.026 14.1304 100.971 13.6541 100.207 12.7015C99.4565 11.7367 99.0811 10.5887 99.0811 9.25754C99.0811 7.91415 99.4565 6.76616 100.207 5.81358C100.958 4.86099 102.013 4.3847 103.373 4.3847C104.758 4.3847 105.813 4.8671 106.538 5.8319C107.263 6.78448 107.625 7.92637 107.625 9.25754ZM111.082 12.1153C111.082 12.7015 110.693 12.9946 109.917 12.9946C109.153 12.9946 108.771 12.7015 108.771 12.1153V5.0625C108.771 4.47629 109.153 4.18319 109.917 4.18319C110.693 4.18319 111.082 4.47629 111.082 5.0625V7.42565H112.441C112.635 7.42565 112.791 7.4745 112.907 7.5722V5.0625C112.907 4.47629 113.289 4.18319 114.053 4.18319C114.83 4.18319 115.218 4.47629 115.218 5.0625V12.1153C115.218 12.7015 114.83 12.9946 114.053 12.9946C113.289 12.9946 112.907 12.7015 112.907 12.1153V9.12931C112.791 9.22701 112.635 9.27586 112.441 9.27586H111.082V12.1153ZM105.334 9.25754C105.334 8.40266 105.179 7.68822 104.868 7.11422C104.557 6.52802 104.059 6.23491 103.373 6.23491C102.699 6.23491 102.201 6.52802 101.877 7.11422C101.554 7.68822 101.392 8.40266 101.392 9.25754C101.392 10.1124 101.554 10.833 101.877 11.4192C102.201 11.9932 102.699 12.2802 103.373 12.2802C104.059 12.2802 104.557 11.9932 104.868 11.4192C105.179 10.833 105.334 10.1124 105.334 9.25754Z" fill="white"/>
<path d="M125 3C125 4.65685 123.589 6 121.849 6C120.108 6 118.697 4.65685 118.697 3C118.697 1.34315 120.108 0 121.849 0C123.589 0 125 1.34315 125 3Z" fill="#E67F32"/>
</svg>
