<svg width="123" height="28" viewBox="0 0 123 28" fill="none" xmlns="http://www.w3.org/2000/svg">
<g clip-path="url(#clip0)">
<path d="M114.684 2.36521C114.362 1.79764 113.581 1.79764 113.259 2.36521L108.481 10.5476L110.456 11.6828L113.948 5.72332L117.44 11.6828L119.416 10.5476L114.684 2.36521ZM99.7967 2.98007C98.9697 1.75034 97.5453 0.946289 95.8912 0.946289C93.3641 0.946289 91.2965 2.93278 91.2965 5.34494C91.2965 7.7098 93.3641 9.69629 95.8912 9.69629C97.0399 9.69629 98.0967 9.31791 98.9237 8.65575H103.472V11.5409H105.77V1.75034H103.472V2.98007H99.7967ZM100.256 6.81115C100.532 6.14899 100.578 5.43953 100.532 4.77737H103.472V6.81115H100.256ZM95.8912 2.98007C97.1777 2.98007 98.2345 4.02061 98.2345 5.34494C98.2345 6.62197 97.1777 7.7098 95.8912 7.7098C94.6506 7.7098 93.5939 6.66926 93.5939 5.34494C93.5939 4.02061 94.6506 2.98007 95.8912 2.98007ZM82.0612 13.4328C83.3477 13.4328 84.3585 14.4733 84.3585 15.7976C84.3585 17.0747 83.3477 18.1625 82.0612 18.1625C80.7747 18.1625 79.7638 17.122 79.7638 15.7976C79.7638 14.4733 80.7747 13.4328 82.0612 13.4328ZM82.0612 11.399C79.5341 11.399 77.4665 13.3382 77.4665 15.7503C77.4665 18.1625 79.5341 20.149 82.0612 20.149C84.5883 20.149 86.6559 18.1625 86.6559 15.7503C86.6559 14.8044 86.3342 13.9057 85.7829 13.1963H87.391V8.13548H89.6884V6.29088H87.391V1.75034H85.0937V8.93953H83.0261V1.75034H73.515V3.54764H80.7747V8.93953H78.5233V6.19629H76.2259V8.93953H73.1934V10.7368H85.1396V12.4868C84.3126 11.8247 83.2558 11.399 82.0612 11.399ZM36.6196 7.66251H40.8927C40.4332 7.00034 40.1575 6.14899 40.1575 5.29764C40.1575 2.93278 42.2252 0.946289 44.7522 0.946289C47.2793 0.946289 49.3929 2.93278 49.3929 5.29764C49.3929 6.19629 49.1172 7.00034 48.6118 7.66251H53.0227V9.41251H45.9469V10.7841H51.5524V15.8922H40.3413V17.3585H51.6443V19.1558H37.998V14.0476H49.301V12.6287H37.998V10.7841H43.6955V9.41251H36.6196V7.66251ZM44.7522 2.98007C43.5117 2.98007 42.4549 4.02061 42.4549 5.34494C42.4549 6.62197 43.5117 7.7098 44.7522 7.7098C46.0388 7.7098 47.0496 6.66926 47.0496 5.34494C47.0955 4.02061 46.0388 2.98007 44.7522 2.98007ZM60.7877 2.36521C60.5121 1.79764 59.731 1.79764 59.4093 2.36521L54.6308 10.5476L56.6066 11.6828L60.0985 5.72332L63.5905 11.6828L65.5662 10.5476L60.7877 2.36521ZM103.427 14.426H94.2831V12.6287H105.724V19.1558H103.427V14.426ZM58.9958 17.3112H69.1041V19.1085H56.6525V12.5814H58.9499V17.3112H58.9958ZM69.1501 6.62197V1.75034H66.8527V14.1895H69.1501V8.46656H71.4474V6.62197H69.1501ZM120.703 1.75034H123V19.1558H120.703V1.75034Z" fill="#595757"/>
<path d="M17.4598 0C17.5517 1.65541 16.8625 2.22297 15.8517 2.31757C14.9787 2.31757 14.4733 2.55405 14.0598 3.02703L9.32723 11.4459C11.9922 11.5878 14.5192 12.5811 16.7247 15.7973C17.9653 17.5946 20.0788 19.1554 24.1222 19.9122C21.1356 20.5743 19.022 19.2973 15.5301 18.1622C12.7273 17.2635 8.40829 16.8851 5.46769 18.3041L0 28C3.7217 24.7838 10.4759 23.9797 15.2544 25.8716C20.768 28 26.0979 28.6622 31.9791 25.5878L27.9817 18.5878C27.2925 19.1554 26.6033 19.4865 25.9141 19.5811L26.6492 13.9527C24.214 14.2365 22.1005 13.6216 20.5383 11.777C18.2409 8.98649 15.9895 6.90541 13.7381 6.43243C14.2895 5.25 15.4382 5.39189 16.8625 5.91216C17.8734 6.24324 19.7112 5.86486 20.1248 4.58784L17.4598 0Z" fill="#009FB5"/>
<path d="M10.2003 11.8721C11.6706 11.8721 12.8193 13.0545 12.8193 14.568C12.8193 16.0342 11.6706 17.264 10.2003 17.264C8.77592 17.264 7.5813 16.0815 7.5813 14.6153C7.62725 13.0545 8.77592 11.8721 10.2003 11.8721Z" fill="#E77F32"/>
<path d="M37.1711 22.7031H38.3658V25.2572C38.3658 25.541 38.4117 25.8247 38.5496 25.9666C38.6874 26.1085 38.8712 26.2031 39.1469 26.2031C39.4225 26.2031 39.6523 26.1085 39.7901 25.9193C39.928 25.7774 40.0199 25.541 40.0199 25.2572V22.7031H41.1226V25.3518C41.1226 25.9193 40.9388 26.345 40.6172 26.6288C40.2496 26.9126 39.7442 27.0545 39.1009 27.0545C38.4577 27.0545 37.9982 26.9126 37.6766 26.6288C37.3549 26.345 37.1711 25.872 37.1711 25.3045V22.7031Z" fill="#9FA0A0"/>
<path d="M41.6279 27.0072V22.7031H42.7766V26.1558H44.6145V27.0072H41.6279Z" fill="#9FA0A0"/>
<path d="M45.9009 25.5883C45.9009 25.8247 45.9469 25.9666 46.0847 26.1085C46.1766 26.2031 46.3604 26.2504 46.4982 26.2504C46.728 26.2504 46.9117 26.2031 47.0496 26.1558C47.1415 26.1085 47.2334 25.9666 47.2334 25.8247C47.2334 25.5883 47.0036 25.3991 46.4982 25.3045C46.3604 25.2572 46.3144 25.2572 46.2225 25.2572C45.6712 25.068 45.3036 24.9261 45.1198 24.7369C44.936 24.5477 44.8441 24.2639 44.8441 23.9329C44.8441 23.5545 44.982 23.2707 45.3036 23.0342C45.6252 22.7977 46.0388 22.7031 46.5442 22.7031C47.0955 22.7031 47.555 22.7977 47.7847 22.9869C48.0604 23.1761 48.1983 23.5072 48.1983 23.9329V23.9802H47.0496V23.9329C47.0496 23.7437 47.0036 23.6491 46.9117 23.5072C46.8658 23.4599 46.728 23.3653 46.4982 23.3653C46.3144 23.3653 46.2225 23.4126 46.0847 23.5072C45.9928 23.5545 45.9469 23.6964 45.9469 23.791C45.9469 24.0274 46.2225 24.2166 46.8199 24.3585C47.0036 24.4058 47.0955 24.4058 47.2334 24.4531C47.601 24.5477 47.8766 24.7369 48.0604 24.8788C48.2442 25.068 48.3361 25.3518 48.3361 25.6829C48.3361 26.1085 48.1523 26.4869 47.8307 26.7234C47.5091 26.9599 47.0496 27.0545 46.4063 27.0545C45.855 27.0545 45.3955 26.9126 45.1198 26.6761C44.8441 26.4396 44.7063 26.0612 44.7063 25.5883H45.9009Z" fill="#9FA0A0"/>
<path d="M53.4822 27.0072V22.7031H55.1363L56.4228 25.7302V22.7031H57.4336V27.0072H55.8255L54.4471 23.8383V27.0072H53.4822Z" fill="#9FA0A0"/>
<path d="M60.0986 27.0072V22.7031H61.8906L62.5798 25.4937L63.223 22.7031H65.0609V27.0072H63.9582V23.5545L63.0392 27.0072H61.9825L61.0635 23.5545V27.0072H60.0986Z" fill="#9FA0A0"/>
<path d="M65.6123 27.0072V22.7031H68.6907V23.5545H66.761V24.4058H68.5989V25.2572H66.761V26.1558H68.7826V27.0072H65.6123Z" fill="#9FA0A0"/>
<path d="M70.161 27.0072V23.5545H68.9204V22.7031H72.5962V23.5545H71.3096V27.0072H70.161Z" fill="#9FA0A0"/>
<path d="M76.226 26.1085C76.18 25.7775 76.18 25.541 76.1341 25.4937C76.0881 25.3045 75.9503 25.1153 75.8584 25.0207C75.7205 24.9261 75.5827 24.8788 75.307 24.8788V24.8315C75.5827 24.7842 75.8584 24.6896 76.0422 24.5004C76.226 24.3112 76.3179 24.0747 76.3179 23.791C76.3179 23.4126 76.18 23.1288 75.9043 22.9869C75.6286 22.7977 75.2611 22.7031 74.7556 22.7031H72.8718V27.0072H73.9746V25.3518H74.434C74.6178 25.3518 74.7097 25.3991 74.8475 25.4464C74.8935 25.4937 74.9854 25.6356 75.0313 25.7775C75.0313 25.8247 75.0773 26.0139 75.0773 26.2977C75.1232 26.5815 75.1232 26.818 75.1692 27.0072H76.4097C76.3179 26.7234 76.2719 26.4396 76.226 26.1085ZM74.9854 24.4531C74.8475 24.5004 74.7097 24.5477 74.434 24.5477H73.9746V23.5072H74.48C74.7097 23.5072 74.8935 23.5545 75.0313 23.6491C75.1232 23.6964 75.1692 23.8383 75.1692 24.0274C75.1232 24.2166 75.0773 24.3585 74.9854 24.4531Z" fill="#9FA0A0"/>
<path d="M80.3152 23.2228C79.9476 22.8445 79.4422 22.6553 78.753 22.6553C78.1098 22.6553 77.5584 22.8445 77.1449 23.2228C76.7773 23.6012 76.5935 24.1215 76.5935 24.8782C76.5935 25.5404 76.7773 26.108 77.1449 26.5336C77.5124 26.912 78.0179 27.1012 78.7071 27.1012C79.3503 27.1012 79.9017 26.912 80.2693 26.5336C80.6828 26.108 80.8206 25.5877 80.8206 24.8782C80.8666 24.1215 80.7287 23.6012 80.3152 23.2228ZM79.4422 25.8242C79.2584 26.0607 79.0287 26.1553 78.753 26.1553C78.4773 26.1553 78.2017 26.0607 78.0638 25.8242C77.88 25.5877 77.8341 25.2566 77.8341 24.8309C77.8341 24.4053 77.88 24.0269 78.0638 23.7904C78.2017 23.6012 78.4773 23.4593 78.753 23.4593C79.0287 23.4593 79.3044 23.6012 79.4422 23.7904C79.626 24.0269 79.672 24.358 79.672 24.8309C79.672 25.3039 79.626 25.5877 79.4422 25.8242Z" fill="#9FA0A0"/>
<path d="M84.4506 23.0342C84.1749 22.7977 83.8073 22.7031 83.21 22.7031H81.3262V27.0072H82.4748V25.4937H83.3478C83.8533 25.4937 84.2208 25.3518 84.4965 25.1153C84.7722 24.8788 84.91 24.5477 84.91 24.0747C84.91 23.6491 84.7722 23.2707 84.4506 23.0342ZM83.5316 24.5004C83.4397 24.595 83.2559 24.6423 82.9803 24.6423H82.4289V23.5072H82.9803C83.21 23.5072 83.3938 23.5545 83.5316 23.6491C83.6695 23.7437 83.7154 23.8856 83.7154 24.0747C83.7154 24.2639 83.6695 24.4058 83.5316 24.5004Z" fill="#9FA0A0"/>
<path d="M88.8614 23.2228C88.4478 22.8445 87.9884 22.6553 87.2532 22.6553C86.6099 22.6553 86.0586 22.8445 85.691 23.2228C85.3234 23.6012 85.1396 24.1215 85.1396 24.8782C85.1396 25.5404 85.3234 26.108 85.691 26.5336C86.0586 26.912 86.564 27.1012 87.2532 27.1012C87.9424 27.1012 88.4478 26.912 88.8614 26.5336C89.2289 26.108 89.4127 25.5877 89.4127 24.8782C89.4127 24.1215 89.2289 23.6012 88.8614 23.2228ZM87.9424 25.8242C87.8046 26.0607 87.5748 26.1553 87.2532 26.1553C86.9775 26.1553 86.7018 26.0607 86.564 25.8242C86.3802 25.5877 86.3343 25.2566 86.3343 24.8309C86.3343 24.4053 86.3802 24.0269 86.564 23.7904C86.7478 23.6012 86.9775 23.4593 87.2532 23.4593C87.5748 23.4593 87.8046 23.6012 87.9424 23.7904C88.1262 24.0269 88.2181 24.358 88.2181 24.8309C88.2181 25.3039 88.1262 25.5877 87.9424 25.8242Z" fill="#9FA0A0"/>
<path d="M89.8723 27.0072V22.7031H91.021V26.1558H92.8589V27.0072H89.8723Z" fill="#9FA0A0"/>
<path d="M93.1804 27.0072V22.7031H94.3291V27.0072H93.1804Z" fill="#9FA0A0"/>
<path d="M95.7994 27.0072V23.5545H94.5588V22.7031H98.2346V23.5545H96.9481V27.0072H95.7994Z" fill="#9FA0A0"/>
<path d="M100.716 22.7031H99.3374L97.7292 27.0072H98.8779L99.1536 26.1558H100.762L101.037 27.0072H102.324L100.716 22.7031ZM99.4293 25.3518L100.027 23.5545L100.578 25.3518H99.4293Z" fill="#9FA0A0"/>
<path d="M102.646 27.0072V22.7031H104.3L105.586 25.7302V22.7031H106.597V27.0072H104.989L103.656 23.8383V27.0072H102.646Z" fill="#9FA0A0"/>
<path d="M113.121 25.5877C113.121 26.0607 112.938 26.3918 112.616 26.6755C112.294 26.912 111.789 27.0539 111.192 27.0539C110.548 27.0539 110.043 26.8647 109.721 26.4864C109.354 26.1553 109.17 25.5877 109.17 24.9255C109.17 24.1688 109.354 23.6485 109.721 23.2228C110.089 22.8445 110.594 22.6553 111.329 22.6553C111.881 22.6553 112.34 22.7499 112.662 22.9864C112.938 23.2701 113.121 23.6012 113.121 24.0269H111.973C111.927 23.8377 111.881 23.7431 111.789 23.6012C111.651 23.5066 111.513 23.412 111.283 23.412C111.008 23.412 110.778 23.5539 110.64 23.7904C110.502 24.0269 110.456 24.4053 110.456 24.8309C110.456 25.2566 110.502 25.635 110.64 25.8242C110.824 26.0607 111.008 26.1553 111.283 26.1553C111.467 26.1553 111.651 26.108 111.789 25.9661C111.927 25.8715 111.973 25.7296 111.973 25.5404H113.121V25.5877Z" fill="#9FA0A0"/>
<path d="M113.535 27.0072V22.7031H114.684V27.0072H113.535Z" fill="#9FA0A0"/>
<path d="M116.2 27.0072V23.5545H114.913V22.7031H118.635V23.5545H117.394V27.0072H116.2Z" fill="#9FA0A0"/>
<path d="M120.105 27.0072H121.3V25.4937L122.862 22.7031H121.668L120.749 24.5477L119.876 22.7031H118.497L120.105 25.4937V27.0072Z" fill="#9FA0A0"/>
<path d="M51.5525 22.7031H50.1282L48.52 27.0072H49.6687L49.9444 26.1558H51.5985L51.8742 27.0072H53.1607L51.5525 22.7031ZM50.266 25.3518L50.8174 23.5545L51.3687 25.3518H50.266Z" fill="#9FA0A0"/>
</g>
<defs>
<clipPath id="clip0">
<rect width="123" height="28" fill="white"/>
</clipPath>
</defs>
</svg>
